<?xml version="1.0" encoding="UTF-8"?>
<svg id="Layer_2" data-name="Layer 2" xmlns="http://www.w3.org/2000/svg" viewBox="0 0 850.39 850.39">
  <defs>
    <style>
      .cls-1 {
        fill: #fc645f;
      }

      .cls-2 {
        fill: #040f77;
      }
    </style>
  </defs>
  <g>
    <path class="cls-2" d="M246.48,450.8c-5.08-.34-11.17.08-16.21-.58l18.29-28.35c2.57-3.99,6.99-6.39,11.74-6.39h10.15s-23.97,35.32-23.97,35.32Z"/>
    <path class="cls-2" d="M246.48,450.45c-5.08.34-11.17-.08-16.21.58l18.29,28.35c2.57,3.99,6.99,6.39,11.74,6.39h10.15s-23.97-35.32-23.97-35.32Z"/>
    <path class="cls-2" d="M217.62,385.33c-13.77,0-24.97-11.2-24.97-24.97s11.2-24.97,24.97-24.97,24.97,11.2,24.97,24.97-11.2,24.97-24.97,24.97ZM217.62,348.38c-6.6,0-11.97,5.37-11.97,11.97s5.37,11.97,11.97,11.97,11.97-5.37,11.97-11.97-5.37-11.97-11.97-11.97Z"/>
    <path class="cls-2" d="M296.4,444.45h-77.11c-2.13,0-4.19.8-5.77,2.23l-4.34,3.94,4.34,3.94c1.58,1.44,3.64,2.23,5.77,2.23h77.11v-12.35Z"/>
    <g>
      <path class="cls-2" d="M219.29,459.63c-2.85,0-5.57-1.05-7.68-2.97l-2.43-2.21v60.12h16.87v-54.94h-6.76Z"/>
      <path class="cls-2" d="M211.61,444.58c2.1-1.92,4.83-2.97,7.68-2.97h6.76v-67.22l-16.87,2.75v69.64l2.43-2.21Z"/>
    </g>
  </g>
  <g>
    <path class="cls-2" d="M407.47,509.97v-6.29h2.26v6.17c0,1.56.89,2.39,2.26,2.39s2.26-.82,2.26-2.39v-6.17h2.26v6.29c0,2.76-1.84,4.34-4.51,4.34s-4.51-1.58-4.51-4.34Z"/>
    <path class="cls-2" d="M421.71,503.68h2.16l3.59,4.96c.58.79,1.24,1.92,1.24,1.92v-6.88h2.26v10.44h-2.18l-3.48-4.77c-.69-.94-1.34-2.05-1.34-2.05v6.82h-2.26v-10.44Z"/>
    <path class="cls-2" d="M436.25,503.68h2.26v8.51h6.04v1.93h-8.3v-10.44Z"/>
    <path class="cls-2" d="M448.71,508.91c0-2.98,2.3-5.38,5.53-5.38s5.53,2.4,5.53,5.38-2.3,5.4-5.53,5.4-5.53-2.4-5.53-5.4ZM457.41,508.91c0-1.85-1.34-3.34-3.16-3.34s-3.19,1.48-3.19,3.34,1.35,3.35,3.19,3.35,3.16-1.48,3.16-3.35Z"/>
    <path class="cls-2" d="M464.32,508.89c0-2.97,2.29-5.37,5.51-5.37,1.43,0,2.72.48,3.66,1.32l-1.39,1.52c-.71-.61-1.43-.79-2.14-.79-1.9,0-3.29,1.48-3.29,3.32s1.35,3.37,3.21,3.37c.97,0,1.85-.37,2.5-1.08l1.4,1.58c-1,.97-2.35,1.55-3.95,1.55-3.22,0-5.51-2.4-5.51-5.42Z"/>
    <path class="cls-2" d="M478.26,503.68h2.26v5.8c.06-.11.58-.89.95-1.37l3.32-4.43h2.63l-3.64,4.77,4.09,5.67h-2.64l-2.84-4.01-1.87,2.29v1.72h-2.26v-10.44Z"/>
    <path class="cls-2" d="M501.91,509.4l-3.93-5.72h2.58l1.69,2.48c.44.63.79,1.32.79,1.32,0,0,.4-.71.81-1.32l1.63-2.48h2.58l-3.88,5.71v4.74h-2.26v-4.72Z"/>
    <path class="cls-2" d="M511.32,508.91c0-2.98,2.3-5.38,5.53-5.38s5.53,2.4,5.53,5.38-2.3,5.4-5.53,5.4-5.53-2.4-5.53-5.4ZM520.03,508.91c0-1.85-1.34-3.34-3.16-3.34s-3.19,1.48-3.19,3.34,1.35,3.35,3.19,3.35,3.16-1.48,3.16-3.35Z"/>
    <path class="cls-2" d="M527.22,509.97v-6.29h2.26v6.17c0,1.56.89,2.39,2.26,2.39s2.26-.82,2.26-2.39v-6.17h2.26v6.29c0,2.76-1.84,4.34-4.51,4.34s-4.51-1.58-4.51-4.34Z"/>
    <path class="cls-2" d="M541.45,503.68h4.48c3.08,0,4.69,1.8,4.69,4.04,0,1.34-.69,2.63-1.98,3.32l2.18,3.08h-2.59l-1.61-2.45c-.31.05-.58.08-.89.08h-2.01v2.37h-2.26v-10.44ZM546,509.82c1.32,0,2.24-.95,2.24-2.1s-.92-2.13-2.22-2.13h-2.3v4.22h2.29Z"/>
    <path class="cls-2" d="M561.2,512.1l1.56-1.24c.61,1.13,1.39,1.39,2.18,1.39,1.24,0,2.11-.73,2.11-2.4v-6.16h2.26v6.11c0,3.13-1.82,4.51-4.34,4.51-1.56,0-3.05-.68-3.77-2.21Z"/>
    <path class="cls-2" d="M574.16,508.91c0-2.98,2.3-5.38,5.53-5.38s5.53,2.4,5.53,5.38-2.3,5.4-5.53,5.4-5.53-2.4-5.53-5.4ZM582.86,508.91c0-1.85-1.34-3.34-3.16-3.34s-3.19,1.48-3.19,3.34,1.35,3.35,3.19,3.35,3.16-1.48,3.16-3.35Z"/>
    <path class="cls-2" d="M590.06,509.97v-6.29h2.26v6.17c0,1.56.89,2.39,2.26,2.39s2.26-.82,2.26-2.39v-6.17h2.26v6.29c0,2.76-1.84,4.34-4.51,4.34s-4.51-1.58-4.51-4.34Z"/>
    <path class="cls-2" d="M604.29,503.68h4.48c3.08,0,4.69,1.8,4.69,4.04,0,1.34-.69,2.63-1.98,3.32l2.18,3.08h-2.59l-1.61-2.45c-.31.05-.58.08-.89.08h-2.01v2.37h-2.26v-10.44ZM608.84,509.82c1.32,0,2.24-.95,2.24-2.1s-.92-2.13-2.22-2.13h-2.3v4.22h2.29Z"/>
    <path class="cls-2" d="M618.32,503.68h2.16l3.59,4.96c.58.79,1.24,1.92,1.24,1.92v-6.88h2.26v10.44h-2.18l-3.48-4.77c-.69-.94-1.34-2.05-1.34-2.05v6.82h-2.26v-10.44Z"/>
    <path class="cls-2" d="M632.86,503.68h8.17v1.93h-5.92v2.13h5.61v1.92h-5.61v2.53h6.14v1.93h-8.4v-10.44Z"/>
    <path class="cls-2" d="M648.94,509.4l-3.93-5.72h2.58l1.69,2.48c.44.63.79,1.32.79,1.32,0,0,.4-.71.81-1.32l1.63-2.48h2.58l-3.88,5.71v4.74h-2.26v-4.72Z"/>
  </g>
  <path class="cls-2" d="M353.09,495.3c4.04,3.33,8.43,5.23,14.73,5.23,9.5,0,14.02-5.23,14.02-14.25v-1.19c0-1.07.12-2.85.24-4.04h-.47c-1.19,2.14-5.11,5.23-13.3,5.23-12.83,0-22.21-10.21-22.21-24.23v-37.77h16.63v37.77c0,5.7,4.04,9.5,9.62,9.5s9.5-3.8,9.5-9.5v-37.77h16.63v60.22c0,17.58-8.91,30.53-29.57,30.53-11.52,0-18.77-3.56-23.28-7.48l7.48-12.23Z"/>
  <path class="cls-1" d="M441.33,422.54c9.38,0,16.63,4.07,19.84,9.8h.47c-.12-.96-.24-2.15-.24-5.5v-2.39h15.2v61.93h-15.2v-2.87c0-2.75.12-4.42.24-5.74h-.47c-3.56,6.46-11.17,10.52-20.55,10.52-17.58,0-29.93-13.51-29.93-32.88s13.07-32.88,30.64-32.88ZM460.81,455.18c0-10.64-7.01-18.05-16.75-18.05s-16.63,7.41-16.63,18.05,7.01,18.29,16.63,18.29,16.75-7.53,16.75-18.29Z"/>
  <path class="cls-1" d="M528.86,488.3c-9.03,0-16.75-3.71-20.67-10.04h-.36c.12,1.2.24,2.99.24,5.74v2.39h-15.32v-89.67h16.51v29.17c0,3.23-.12,4.42-.24,5.38h.36c3.21-5.26,10.57-8.73,18.88-8.73,17.58,0,30.41,13.51,30.41,32.88s-12.35,32.88-29.81,32.88ZM542.05,455.18c0-10.76-7.01-18.05-16.75-18.05s-16.63,7.29-16.63,18.05,6.89,18.29,16.63,18.29,16.75-7.53,16.75-18.29Z"/>
  <path class="cls-1" d="M570.55,464.15v-67.43h16.63v65.76c0,6.82,4.04,9.8,9.98,9.8,1.31,0,2.26-.24,3.33-.48v14.59c-1.31.48-3.56.84-6.06.84-15.32,0-23.87-7.77-23.87-23.07Z"/>
  <path class="cls-2" d="M324.14,463.2c5.86,0,10.61-4.65,10.61-10.39v-7.88c0-13.71-9.58-22.59-24.85-22.59s-25.7,9.26-25.7,24.94v17.86c0,12.77,10.57,23.13,23.61,23.13h24.28v-13.46h-22.2c-5.21,0-9.44-4.14-9.44-9.25v-19.03c0-6.3,3.76-10,9.46-10s9.45,3.95,9.45,9.75v4.57h-15.32v12.35h20.11Z"/>
  <path class="cls-1" d="M647.15,463.2c5.86,0,10.61-4.65,10.61-10.39v-7.88c0-13.71-9.58-22.59-24.85-22.59s-25.7,9.26-25.7,24.94v17.86c0,12.77,10.57,23.13,23.61,23.13h24.28v-13.46h-22.2c-5.21,0-9.44-4.14-9.44-9.25v-19.03c0-6.3,3.76-10,9.46-10s9.45,3.95,9.45,9.75v4.57h-15.32v12.35h20.11Z"/>
</svg>